<?xml version="1.0" encoding="utf-8"?>
<!-- Generator: Adobe Illustrator 28.0.0, SVG Export Plug-In . SVG Version: 6.00 Build 0)  -->
<svg version="1.1" id="圖層_1" xmlns="http://www.w3.org/2000/svg" xmlns:xlink="http://www.w3.org/1999/xlink" x="0px" y="0px"
	 viewBox="0 0 96 96" style="enable-background:new 0 0 96 96;" xml:space="preserve">
<style type="text/css">
	.st0{fill:#E6E6E6;}
	.st1{fill:url(#SVGID_1_);}
	.st2{fill:url(#SVGID_00000025411353995403552200000000006217777309074312_);}
	.st3{fill:url(#SVGID_00000128447205555411354670000002863847885823025075_);}
	.st4{fill:url(#SVGID_00000155827070197613374610000016111325352201770427_);}
	.st5{fill:url(#SVGID_00000122689353228626403320000007250342091819626385_);}
	.st6{fill:none;stroke:#E6E6E6;stroke-linecap:round;stroke-linejoin:round;stroke-miterlimit:10;}
	.st7{stroke:#231815;stroke-width:0.75;stroke-linecap:round;stroke-linejoin:round;stroke-miterlimit:10;}
	.st8{fill:#FFFFFF;stroke:#000000;stroke-width:0.75;stroke-linecap:round;stroke-linejoin:round;stroke-miterlimit:10;}
	.st9{fill:#FFFFFF;}
	.st10{fill:none;stroke:#E6E6E6;stroke-width:0.25;stroke-linecap:round;stroke-linejoin:round;stroke-miterlimit:10;}
	.st11{fill:none;stroke:#E6E6E6;stroke-width:2;stroke-linecap:round;stroke-linejoin:round;stroke-miterlimit:10;}
	.st12{fill:#2A2A2A;}
</style>
<g>
	<g>
		<g>
			<path class="st12" d="M67.3,39.5h-7.5c-0.4,0-0.8,0.4-0.8,0.8v21.3c0,0.4,0.4,0.8,0.8,0.8h7.5c2.4,0,3.7-1.4,3.7-3.9V43.3
				C71,40.8,69.7,39.5,67.3,39.5L67.3,39.5z M61.3,60.1v-17c2.2,0.4,3.2,1.3,3.2,2.9v14.2H61.3L61.3,60.1z"/>
		</g>
		<g>
			<path class="st12" d="M53.7,37.4c-0.9-1.4-2.4-2.4-4.4-3.1c0.5-0.6,0.9-1.3,1.2-2.1c0.4-1.1,0.6-2.5,0.6-3.9v-3.6
				c0-3.1-1-5.7-2.9-7.6c-1.9-1.9-4.9-2.8-8.8-2.8H22c-1.1,0-1.9,0.3-2.5,0.8l-8.1,6.8c-0.8,0.7-1.2,1.6-1.2,2.9v7.5
				c0,2.4,1.3,3.7,3.7,3.7h5.7l-3.1,2.6c-0.8,0.7-1.2,1.6-1.2,2.9v6.7c0,1.4,0.4,2.3,1,2.8l-4.9,4.1c-0.8,0.7-1.2,1.6-1.2,2.9v7.3
				c0,2.4,1.3,3.7,3.7,3.7h19.8c4.2,0,7.5-1,9.9-3l8-6.8c2.5-2.1,3.8-5.1,3.8-8.9v-6.3C55.4,41.4,54.8,39.1,53.7,37.4z M54,50.5
				c0,3.2-1,5.7-3.1,7.6c-2,1.9-5.1,2.8-9.1,2.8H22c-1.5,0-2.3-0.7-2.3-2.2v-7.3c0-1.5,0.7-2.3,2.3-2.3h15.7c1,0,1.7-0.2,2-0.6
				c0.3-0.4,0.4-0.8,0.4-1.3v-1.7c0-0.5-0.1-0.9-0.4-1.3c-0.3-0.3-0.9-0.5-2-0.5H27c-1.5,0-2.2-0.7-2.2-2.2v-6.7
				c0-1.5,0.7-2.3,2.2-2.3h6.6c1,0,1.7-0.2,2-0.6c0.3-0.4,0.4-0.8,0.4-1.3v-0.9c0-0.5-0.1-0.9-0.4-1.3c-0.3-0.4-0.9-0.6-2-0.6H22
				c-1.5,0-2.3-0.7-2.3-2.3V18c0-1.5,0.7-2.3,2.3-2.3h17.5c3.5,0,6,0.8,7.8,2.4c1.7,1.6,2.5,3.8,2.5,6.6v3.6c0,1.6-0.3,3-0.8,4.1
				c-0.6,1.2-1.5,2-2.9,2.6c3,0.3,5,1.2,6.2,2.7c1.1,1.5,1.7,3.6,1.7,6.4V50.5z"/>
		</g>
		<g>
			<g>
				<path class="st12" d="M39.7,48.4c0.3-0.4,0.4-0.8,0.4-1.3v-1.7c0-0.5-0.1-0.9-0.4-1.3c-0.3-0.3-0.9-0.5-2-0.5H36V49h1.7
					C38.7,49,39.4,48.8,39.7,48.4z"/>
			</g>
			<g>
				<path class="st12" d="M81.6,30.4c-2.7-2.3-7-3.5-12.7-3.5H49.7v1.4c0,0.3-0.1,0.5-0.1,0.8h19.3c5.1,0,8.8,1,11.2,2.9
					c2.3,1.9,3.5,5,3.5,9v19.6c0,4.1-1.2,7.1-3.5,9c-2.3,2-6.1,2.9-11.2,2.9H47.8c-1.1,0-1.5-0.4-1.5-1.5V60.3
					c-1.4,0.3-2.9,0.5-4.6,0.5H36V78c0,2.4,1.3,3.7,3.7,3.7h21.1c5.6,0,9.8-1.2,12.6-3.5l8.2-6.8c2.8-2.4,4.2-6,4.2-10.8V41.1
					C85.8,36.3,84.4,32.7,81.6,30.4z"/>
			</g>
			<g>
				<path class="st12" d="M46.4,34.9c-0.1,0-0.2,0.1-0.3,0.2c0.1,0,0.2,0,0.3,0.1V34.9z"/>
			</g>
		</g>
	</g>
	<g>
		<g>
			<path class="st12" d="M39.5,16.2c3.3,0,5.8,0.8,7.4,2.3c1.6,1.5,2.4,3.6,2.4,6.2v3.6c0,1.5-0.2,2.8-0.8,3.9
				c-0.5,1.1-1.4,1.8-2.6,2.4c-0.2,0.1-0.3,0.3-0.3,0.5c0,0.2,0.2,0.4,0.4,0.4c2.8,0.3,4.8,1.2,5.8,2.5c1.1,1.4,1.6,3.4,1.6,6.1v6.3
				c0,3.1-1,5.5-2.9,7.2c-1.9,1.8-4.9,2.7-8.8,2.7H22c-1.2,0-1.8-0.5-1.8-1.7v-7.3c0-1.2,0.5-1.8,1.8-1.8h15.7
				c1.2,0,1.9-0.2,2.3-0.8c0.4-0.5,0.5-1,0.5-1.6v-1.7c0-0.6-0.2-1.2-0.6-1.6c-0.4-0.5-1.2-0.7-2.3-0.7H27c-1.2,0-1.7-0.5-1.7-1.7
				v-6.7c0-1.2,0.5-1.8,1.7-1.8h6.6c1.2,0,1.9-0.2,2.3-0.8c0.4-0.5,0.5-1,0.5-1.6v-0.9c0-0.6-0.2-1.2-0.5-1.6
				c-0.4-0.5-1.2-0.7-2.3-0.7H22c-1.2,0-1.8-0.5-1.8-1.8V18c0-1.2,0.5-1.8,1.8-1.8H39.5 M39.5,15.7H22c-1.5,0-2.3,0.8-2.3,2.3v7.5
				c0,1.5,0.7,2.3,2.3,2.3h11.7c1,0,1.7,0.2,2,0.6c0.3,0.4,0.4,0.8,0.4,1.3v0.9c0,0.5-0.1,0.9-0.4,1.3c-0.3,0.4-0.9,0.6-2,0.6H27
				c-1.5,0-2.2,0.7-2.2,2.3v6.7c0,1.5,0.7,2.2,2.2,2.2h10.7c1,0,1.7,0.2,2,0.5c0.3,0.3,0.4,0.8,0.4,1.3v1.7c0,0.5-0.1,0.9-0.4,1.3
				c-0.3,0.4-0.9,0.6-2,0.6H22c-1.5,0-2.3,0.7-2.3,2.3v7.3c0,1.5,0.7,2.2,2.3,2.2h19.8c4,0,7.1-0.9,9.1-2.8c2.1-1.9,3.1-4.4,3.1-7.6
				v-6.3c0-2.8-0.6-4.9-1.7-6.4c-1.1-1.5-3.2-2.4-6.2-2.7c1.4-0.6,2.3-1.5,2.9-2.6c0.5-1.2,0.8-2.6,0.8-4.1v-3.6
				c0-2.8-0.8-4.9-2.5-6.6C45.5,16.5,42.9,15.7,39.5,15.7L39.5,15.7z"/>
		</g>
	</g>
</g>
</svg>
