<?xml version="1.0" encoding="utf-8"?>
<!-- Generator: Adobe Illustrator 28.0.0, SVG Export Plug-In . SVG Version: 6.00 Build 0)  -->
<svg version="1.1" id="圖層_1" xmlns="http://www.w3.org/2000/svg" xmlns:xlink="http://www.w3.org/1999/xlink" x="0px" y="0px"
	 viewBox="0 0 96 96" style="enable-background:new 0 0 96 96;" xml:space="preserve">
<style type="text/css">
	.st0{fill:#E6E6E6;}
	.st1{fill:url(#SVGID_1_);}
	.st2{fill:url(#SVGID_00000038382756987407108090000015258958009217944241_);}
	.st3{fill:url(#SVGID_00000083783635659574105110000003756551016944937916_);}
	.st4{fill:url(#SVGID_00000165210228442482402230000009157306654177299389_);}
	.st5{fill:url(#SVGID_00000147191359386066277820000001046545292965730697_);}
	.st6{fill:none;stroke:#E6E6E6;stroke-linecap:round;stroke-linejoin:round;stroke-miterlimit:10;}
	.st7{stroke:#231815;stroke-width:0.75;stroke-linecap:round;stroke-linejoin:round;stroke-miterlimit:10;}
	.st8{fill:#FFFFFF;stroke:#000000;stroke-width:0.75;stroke-linecap:round;stroke-linejoin:round;stroke-miterlimit:10;}
	.st9{fill:#FFFFFF;}
	.st10{fill:none;stroke:#E6E6E6;stroke-width:0.25;stroke-linecap:round;stroke-linejoin:round;stroke-miterlimit:10;}
	.st11{fill:none;stroke:#E6E6E6;stroke-width:2;stroke-linecap:round;stroke-linejoin:round;stroke-miterlimit:10;}
	.st12{fill:#2A2A2A;}
</style>
<g>
	<g>
		<path class="st12" d="M37.9,13.2c1.1,0,2.4,0.2,3.6,0.5c0.7,0.1,1.4,0.3,2,0.3c1,0.1,2,0.3,2.9,0.4c2,0.3,4.1,0.6,6.1,0.8
			c4.3,0.6,7.7,0.9,10.9,1.1c1.4,0.1,2.7,0.2,4,0.2c-0.3,0.5-0.5,1-0.7,1.7c-0.2,0.9-0.3,1.7-0.3,2.2c-0.2,7.2-0.2,14.2-0.2,20.2
			c0,1.8,0,3.7,0,5.5c0,4.7,0,9.5,0.2,14.2c0,0.3,0,0.6,0,0.9c0,1.5,0,3.5,1,5.2c0.7,1.3,1.8,2.1,2.7,2.6c-0.1,0-0.2,0.1-0.2,0.1
			c-0.9,0.5-2,1.1-2.9,2.1c-0.2,0.2-0.4,0.5-0.5,0.6l-0.1,0.2c-0.1,0.2-0.3,0.3-0.4,0.5c-0.1,0.2-0.3,0.4-0.4,0.6
			c-0.1,0-0.1-0.1-0.2-0.2c-0.4-0.3-0.8-0.5-1.1-0.8c-0.9-0.6-1.8-1.2-2.6-1.9c0.1-0.3,0.1-0.7,0.2-1c0.2-0.8,0.4-1.7,0.5-2.6
			c0.1-0.8,0.1-1.6,0.1-2.3l0-0.4c0-0.5,0-1.1,0.1-1.6l0-1c0.1-2.2,0.1-3.8,0.2-5.4c0-1.1-0.1-2.2-0.1-3.2c0-0.3-0.1-0.6-0.1-0.9
			c0-0.1,0-0.2,0-0.3c0-1-0.1-2.8-1.7-4.2c-0.9-0.7-1.9-1.1-3.2-1.1c-0.4,0-0.8,0-1.1,0.1c-0.2,0-0.4,0-0.4,0c-0.7,0-1.4,0-2,0.1
			c-0.6,0-1.2,0.1-1.7,0.1c-0.2,0-0.4,0-0.6,0c-0.1,0-0.2,0-0.2,0c-1.5,0-2.9,0.7-3.6,2c-0.5,0.8-0.7,1.8-0.7,2.8v2.3
			c0,2.6,0.1,5.4,0.2,8.2c0.1,2.1,0.2,4.3,0.2,6.4c-0.2,0.1-0.4,0.2-0.5,0.3c-0.3,0.2-0.6,0.3-0.7,0.4c-0.9,0.5-1.7,1-2.6,1.5
			c0-0.7,0.1-1.4,0.1-2.1c0.1-1.4,0.2-2.9,0.2-4.3c0-3.8,0-7.6-0.1-11.3c-0.1-2-0.1-4-0.2-6c-0.1-1.8-0.1-3.6-0.2-5.4
			c0-0.9-0.1-1.9-0.1-2.8c-0.1-3.9-0.3-7.9-0.8-11.9c0-0.3,0-0.5,0-0.6c0.1,0,0.2-0.1,0.3-0.1c0.6-0.2,1.7-0.5,2.6-1.3
			c0,0.7,0,1.3,0.1,1.9c0,0.5,0.1,1,0.1,1.5c0,0.8,0,1.6,0.1,2.4c0,1.8,0.1,3.6,0.1,5.3c0,0.3,0,0.5,0.1,0.8l0,0V38
			c0,1.1,0.1,2.6,1,3.8c0.3,0.4,0.7,0.8,1.2,1c1.3,0.6,2.7,0.6,3.7,0.6c0.4,0,0.8,0,1.2,0c0.3,0,0.5,0,0.7,0c1.9,0,3.9-0.2,5.8-1
			c0.2-0.1,0.9-0.4,1.4-1c1.2-1.5,1-3.3,0.9-4.4c0-0.1,0-0.3,0-0.4c0-0.8,0-1.6,0-2.5c0-0.4,0-0.9,0-1.3c0-0.8,0-1.6,0-2.5
			c0-1.6,0-3.3,0-5c0-0.9-0.1-2.7-1-4.2c-1.2-1.8-3.3-2.2-4.5-2.5c-0.2,0-0.5-0.1-0.6-0.1c-0.3-0.1-2.9-0.8-5-0.8
			c-2,0-3.1,0.7-3.8,1.4C47,19,47,18.9,46.9,18.8c-0.6-0.8-1.4-1.1-1.6-1.2c-3-1.1-6.4-1.2-9.4-1.3l-0.9,0l-0.3,0
			c-0.7,0-1.4,0-2.2,0c-0.1,0-0.3,0-0.4,0c0.9-0.8,1.9-1.5,2.9-2.1c0.5-0.3,1.1-0.7,1.6-0.8C37,13.3,37.4,13.2,37.9,13.2 M42.9,25.7
			L42.9,25.7L42.9,25.7 M34,27.4c0,2-0.1,3.9-0.2,5.8c-0.1,3.5-0.2,7-0.2,10.6c0.1,3.5,0.2,7.1,0.2,10.6c0.1,3.1,0.2,6.3,0.2,9.4
			c0,2.9,0.1,5.4,0,7.7c0,2.4,0,4.3,0.1,6.2c-0.3,0.2-0.7,0.5-1,0.7c-0.4,0.2-0.7,0.4-1,0.6c-0.7,0.5-1.4,1-2.1,1.5
			c0-7.7,0.1-15.5,0.2-24l0-0.3c0-2,0.1-5.6-2.6-7.2C27,48.5,26,48.2,25,48.2c-0.4,0-0.8,0-1.2,0.1c0.4-0.3,0.8-0.6,1.1-0.9
			c0.4-0.3,0.8-0.6,1.2-0.9c0,0,0.1,0,0.1-0.1c2.6-2.4,3.5-4.7,3.1-8c-0.1-1.1-0.3-2.3-0.4-3.4c-0.1-0.9-0.3-1.8-0.4-2.7
			c0-0.3-0.1-0.6-0.1-0.9c-0.1-0.4-0.2-1.1-0.2-1.6C30,29.3,32,28.5,34,27.4 M28.1,29.1L28.1,29.1L28.1,29.1 M37.9,10.2
			c-0.7,0-1.4,0.1-2.1,0.3c-0.8,0.2-1.6,0.7-2.4,1.2c-2.3,1.5-4.4,3.3-6.5,5.1c-1.1,1-3.8,2.7-3.9,4.4c0,0.3,0.2,0.7,0.5,0.9
			c0.1,0,0.1,0,0.2,0c0.9,0,2.6-1.6,3.3-1.9c1.7-0.7,3.5-0.9,5.4-0.9c0.8,0,1.6,0,2.4,0.1c2.9,0.1,6.5,0.1,9.3,1.1
			c0.1,0,0.2,0.1,0.3,0.2c0.1,0.1,0.1,0.3,0.1,0.4c-0.2,1.4-1.9,1.6-3,2.1c-1.6,0.6-1.8,2.2-1.6,3.7c0.6,4.8,0.7,9.7,0.9,14.5
			c0.1,1.8,0.1,3.6,0.2,5.4c0.1,2,0.1,4,0.2,6c0.1,3.7,0.1,7.5,0.1,11.2c0,3-0.4,6-0.3,9c0,0.7,0.1,1.3,0.2,2
			c0.3,0.2,0.6,0.3,0.9,0.3c0.5,0,1-0.3,1.5-0.7c0.2-0.2,0.4-0.4,0.6-0.6c0.2-0.2,0.4-0.3,0.7-0.5c1.1-0.6,2.2-1.3,3.3-1.9
			c0.4-0.2,2.7-1.3,2.7-1.6c0-5.3-0.4-11.1-0.4-16.1c0-0.1,0-2.3,0-2.3c0-0.9,0.3-1.9,1.4-1.9c0,0,0.1,0,0.1,0c0.2,0,0.5,0,0.7,0
			c1.3,0,2.5-0.1,3.8-0.1c0.5,0,1-0.1,1.5-0.1c0.5,0,0.9,0.1,1.2,0.4c0.7,0.6,0.6,1.6,0.6,2.4c0.1,1.3,0.2,2.5,0.2,3.8
			c0,1.8-0.1,3.6-0.2,5.4c0,0.9-0.1,1.7-0.1,2.6c0,0.8,0,1.6-0.1,2.4c-0.2,1.6-0.7,3.1-0.9,4.7c0,0.1,0,0.2,0,0.4
			c0.1,0.2,0.2,0.3,0.3,0.5c1.5,1.4,3.2,2.4,4.8,3.6c0.6,0.4,1.1,1.1,1.9,1.1c0,0,0.1,0,0.1,0c1.4-0.1,2.3-1.7,3.1-2.7
			c0.2-0.2,0.3-0.4,0.5-0.6c0.9-1,2.3-1.4,3.3-2.2c1.7-1.2,2.7-2,2.9-2.5c0.2-0.6-2.4-1.5-2.7-1.6c-1-0.4-2.2-1-2.7-2
			c-0.7-1.4-0.6-3.3-0.7-4.8c-0.3-6.5-0.2-13.1-0.2-19.6c0-6.7,0-13.4,0.1-20.1c0-0.5,0-1,0.2-1.5c0.2-0.9,0.8-1.6,1.2-2.4
			c0.2-0.5,0.6-1,0.8-1.6c0.3-1.5-1.7-1.4-2.6-1.4c-1.8,0-3.6-0.1-5.4-0.3c-3.6-0.3-7.1-0.7-10.7-1.1c-3-0.4-6-0.8-9-1.2
			C42.2,10.8,40,10.2,37.9,10.2L37.9,10.2z M52.2,40.3c-0.9,0-1.8-0.1-2.5-0.4c-0.3-0.4-0.4-1.1-0.4-2v-1.9l-0.1-0.4
			c0-2.6-0.1-5.2-0.1-7.8c0-2.1-0.4-4.5,0.2-6.5c0.2-0.5,0.8-0.6,1.7-0.6c1.5,0,3.7,0.5,4.2,0.7c1,0.3,2.8,0.4,3.4,1.3
			c0.5,0.7,0.5,1.8,0.6,2.6c0.1,2.5,0,4.9,0,7.4c0,1.3,0,2.6,0,3.9c0,0.7,0.4,2-0.2,2.6c-0.1,0.1-0.2,0.2-0.3,0.2
			c-1.5,0.6-3.1,0.7-4.7,0.7C53.5,40.3,52.8,40.3,52.2,40.3L52.2,40.3z M36.2,23.1l-1.1,0.2c-2.5,1.6-5.4,3.1-8.4,3.8
			c-0.3,0.1-0.6,0.1-0.9,0.3c-1.4,0.9-0.5,4.1-0.4,5.4c0.2,2,0.6,4,0.8,6c0.3,2.5-0.4,3.8-2.2,5.5c-1.1,1-3.3,2.2-3.7,3.7
			c-0.3,1.2-0.5,3.1,1.1,3.5c0.2,0.1,0.4,0.1,0.7,0.1c0.9,0,1.9-0.3,2.8-0.3c0.4,0,0.8,0.1,1.2,0.3c1.3,0.8,1.2,3.7,1.1,5
			c-0.1,9.1-0.2,18.3-0.2,27.4c0,0.5,0.2,1.9,0.8,1.9c0.1,0,0.2,0,0.3-0.1c0.2-0.1,0.4-0.3,0.5-0.5c0.3-0.4,0.8-0.7,1.2-0.9
			c1.4-0.9,2.7-1.8,4-2.8c0.8-0.6,2.8-1.6,3.2-2.6c0.1-0.3,0.1-0.7,0.1-1c-0.1-2.1-0.1-4.2-0.1-6.3c0-2.6,0-5.2,0-7.8
			c-0.1-6.7-0.4-13.3-0.5-20c-0.1-6.4,0.4-12.8,0.4-19.2C37,24.1,37,23.8,37,23.5L36.2,23.1L36.2,23.1z"/>
	</g>
</g>
</svg>
