<?xml version="1.0" encoding="utf-8"?>
<!-- Generator: Adobe Illustrator 28.0.0, SVG Export Plug-In . SVG Version: 6.00 Build 0)  -->
<svg version="1.1" id="圖層_1" xmlns="http://www.w3.org/2000/svg" xmlns:xlink="http://www.w3.org/1999/xlink" x="0px" y="0px"
	 viewBox="0 0 96 96" style="enable-background:new 0 0 96 96;" xml:space="preserve">
<style type="text/css">
	.st0{fill:#2A2A2A;}
	.st1{fill:none;stroke:#2A2A2A;stroke-width:5;stroke-linecap:round;stroke-linejoin:round;stroke-miterlimit:10;}
</style>
<g>
	<g id="路径_00000132075836275597375690000011927691049806820260_">
		<path class="st0" d="M67.6,18.6c6,0,9.7,0.4,11.9,2.6c2.2,2.2,2.6,5.9,2.6,11.9l0,18.2c0,6-0.4,9.7-2.6,11.9
			c-2.2,2.2-5.7,2.6-11.9,2.6H28.5c-6.1,0-9.8-0.4-11.9-2.6c-2.2-2.2-2.6-5.9-2.6-11.9l0-9.1v-9.1c0-6,0.4-9.7,2.6-11.8
			c2.2-2.2,5.9-2.6,11.9-2.6H67.6 M67.6,13.6c0,0-39.1,0-39.1,0c-6.5,0-11.8,0.4-15.5,4.1c-3.7,3.7-4.1,8.9-4.1,15.4
			c0,0,0,18.3,0,18.3c0,6.5,0.4,11.8,4.1,15.5c3.7,3.7,9,4.1,15.5,4.1c0,0,39.1,0,39.1,0c6.5,0,11.7-0.4,15.4-4.1
			c3.7-3.7,4.1-9,4.1-15.5c0,0,0-18.2,0-18.2c0-6.5-0.4-11.8-4.1-15.4C79.3,14,74.1,13.6,67.6,13.6L67.6,13.6z"/>
	</g>
</g>
<image style="overflow:visible;" width="48" height="48" xlink:href="icons8-screen-48.png"  transform="matrix(1 0 0 1 6691 8770.2754)">
</image>
<g>
	<g id="路径_00000088852790831113950690000003249565084886777224_">
		<path class="st0" d="M64.2,113.6c6.8,0,11,0.5,13.6,3.1c2.6,2.6,3.1,6.8,3.1,13.6v32.1c0,7-0.5,11.1-3,13.7c-2.6,2.6-6.6,3-13.6,3
			H31.9c-7,0-11.1-0.5-13.7-3c-2.6-2.6-3-6.6-3-13.7l0-16.1v-16.1c0-6.8,0.5-11,3-13.6c2.6-2.6,6.8-3.1,13.7-3.1H64.2 M64.2,108.6
			c0,0-32.2,0-32.2,0c-7.2,0-13.1,0.5-17.2,4.6c-4.1,4.1-4.5,9.9-4.5,17.1c0,0,0,32.2,0,32.2c0,7.2,0.4,13.1,4.5,17.2
			c4.1,4.1,10,4.5,17.2,4.5c0,0,32.2,0,32.2,0c7.2,0,13-0.4,17.1-4.5c4.1-4.1,4.5-10,4.5-17.2c0,0,0-32.1,0-32.1
			c0-7.2-0.4-13.1-4.5-17.2C77.2,109.1,71.4,108.6,64.2,108.6L64.2,108.6z"/>
	</g>
</g>
<line class="st1" x1="42.4" y1="68.9" x2="42.4" y2="82.4"/>
<line class="st1" x1="53.6" y1="68.9" x2="53.6" y2="82.4"/>
<line class="st1" x1="33.5" y1="82.4" x2="62.5" y2="82.4"/>
<image style="overflow:visible;" width="48" height="48" xlink:href="icons8-screen-48.png"  transform="matrix(1.6451 0 0 1.6451 -97.3167 8.5167)">
</image>
</svg>
