<?xml version="1.0" encoding="utf-8"?>
<!-- Generator: Adobe Illustrator 28.0.0, SVG Export Plug-In . SVG Version: 6.00 Build 0)  -->
<svg version="1.1" id="圖層_1" xmlns="http://www.w3.org/2000/svg" xmlns:xlink="http://www.w3.org/1999/xlink" x="0px" y="0px"
	 viewBox="0 0 96 96" style="enable-background:new 0 0 96 96;" xml:space="preserve">
<style type="text/css">
	.st0{fill:#2A2A2A;}
	.st1{fill:none;stroke:#2A2A2A;stroke-width:5;stroke-miterlimit:10;}
</style>
<image style="overflow:visible;enable-background:new    ;" width="96" height="96" xlink:href="icons8-iphone-se-96.png"  transform="matrix(1 0 0 1 0 -110.2211)">
</image>
<image style="overflow:visible;enable-background:new    ;" width="96" height="96" xlink:href="icons8-iphone-se-96.png"  transform="matrix(1 0 0 1 -98.8333 0)">
</image>
<g>
	<g id="路径_00000044174496311060328630000014609503440038188966_">
		<path class="st0" d="M-119.2,8.6c6.8,0,11,0.5,13.6,3.1s3.1,6.8,3.1,13.6v45.4c0,7-0.5,11.1-3,13.7c-2.6,2.6-6.6,3-13.6,3h-12.2
			c-7,0-11.1-0.5-13.7-3c-2.6-2.6-3-6.6-3-13.7c0,0,0-45.3,0-45.4c0-6.8,0.5-11,3-13.6c2.6-2.6,6.8-3.1,13.7-3.1L-119.2,8.6
			 M-119.2,3.6h-12.2c-7.2,0-13.1,0.5-17.2,4.6c-4.1,4.1-4.5,9.9-4.5,17.1v45.4c0,7.2,0.4,13.1,4.5,17.2s10,4.5,17.2,4.5h12.2
			c7.2,0,13-0.4,17.1-4.5s4.5-10,4.5-17.2c0,0,0-45.3,0-45.4c0-7.2-0.4-13.1-4.5-17.2C-106.2,4.1-112,3.6-119.2,3.6L-119.2,3.6z"/>
	</g>
</g>
<polygon class="st0" points="112,16.3 160,16.3 160,11.9 153.6,5.9 121.7,5.9 112,11.7 "/>
<path class="st0" d="M112,71.7v7.8l6.4,10.6h31.9l9.7-10.3v-8.1H112z M136,84.2c-2.5,0-4.4-2-4.4-4.4s2-4.4,4.4-4.4
	c2.5,0,4.4,2,4.4,4.4S138.5,84.2,136,84.2z"/>
<line class="st1" x1="26.1" y1="20.7" x2="69.9" y2="20.7"/>
<line class="st1" x1="25.4" y1="69.6" x2="70.6" y2="69.6"/>
<circle class="st0" cx="48" cy="78.5" r="4.2"/>
<g>
	<g id="路径_00000088852790831113950690000003249565084886777224_">
		<path class="st0" d="M54.9,10.9c6,0,9.7,0.4,11.9,2.6c2.2,2.2,2.6,5.9,2.6,11.9v45.2c0,6-0.4,9.7-2.6,11.9
			c-2.2,2.2-5.7,2.6-11.9,2.6H41.2c-6.1,0-9.8-0.4-11.9-2.6c-2.2-2.2-2.6-5.9-2.6-11.9V25.4c0-6,0.4-9.7,2.6-11.8
			c2.2-2.2,5.9-2.6,11.9-2.6H54.9 M54.9,5.9c0,0-13.7,0-13.7,0c-6.5,0-11.8,0.4-15.5,4.1c-3.7,3.7-4.1,8.9-4.1,15.4
			c0,0,0,45.2,0,45.2c0,6.5,0.4,11.8,4.1,15.5c3.7,3.7,9,4.1,15.5,4.1c0,0,13.7,0,13.7,0c6.5,0,11.7-0.4,15.4-4.1
			c3.7-3.7,4.1-9,4.1-15.5c0,0,0-45.2,0-45.2c0-6.5-0.4-11.8-4.1-15.4C66.6,6.3,61.3,5.9,54.9,5.9L54.9,5.9z"/>
	</g>
</g>
</svg>
