<svg xmlns="http://www.w3.org/2000/svg"  viewBox="0 0 24 24" width="96px" height="96px" baseProfile="basic"><path fill="#070707" d="M22.57,4.543c-0.29-0.31-0.7-0.49-1.13-0.49H16.9c-0.46-2.28-2.48-4.01-4.9-4.01 s-4.44,1.73-4.9,4.01H2.56c-0.43,0-0.84,0.18-1.13,0.49S0.98,5.273,1,5.692l0.71,15.25c0.08,1.74,1.5,3.1,3.23,3.1h14.12 c1.73,0,3.15-1.36,3.23-3.1L23,5.692C23.02,5.273,22.86,4.853,22.57,4.543z M12,2.043c1.31,0,2.41,0.84,2.82,2.01H9.18 C9.59,2.882,10.69,2.043,12,2.043z M11.97,20.003c-2.49,0-4.25-1.77-4.25-1.77l1.1-1.75c0,0,1.99,1.49,3.15,1.49 c1.12,0,2.06-0.62,2.06-1.35c0-0.92-0.6-1.29-2.41-1.95c-1.55-0.57-3.46-1.27-3.46-3.43c0-1.88,1.67-3.3,3.88-3.3 c2.48,0,3.8,1.39,3.8,1.39l-1.04,1.72c0,0-1.52-1.09-2.76-1.09c-1.08,0-1.86,0.54-1.86,1.28c0,0.64,0.56,0.96,2.13,1.53 c1.58,0.57,3.75,1.36,3.75,3.85C16.06,18.523,14.26,20.003,11.97,20.003z"/></svg>