<?xml version="1.0" encoding="utf-8"?>
<!-- Generator: Adobe Illustrator 28.0.0, SVG Export Plug-In . SVG Version: 6.00 Build 0)  -->
<svg version="1.1" id="圖層_1" xmlns="http://www.w3.org/2000/svg" xmlns:xlink="http://www.w3.org/1999/xlink" x="0px" y="0px"
	 viewBox="0 0 48 48" style="enable-background:new 0 0 48 48;" xml:space="preserve">
<style type="text/css">
	.st0{fill:#C8C8C8;}
</style>
<path class="st0" d="M15.2,35.5c0.5,0.1,0.9,0.1,1.4,0.2c0.5,0,0.9,0,1.4,0c0.4,0,0.7,0,1,0c0.3,0,0.7-0.1,1-0.2V40h20v-20h-4.5
	c0.1-0.3,0.1-0.6,0.2-0.9c0-0.3,0-0.7,0-1c0-0.5,0-0.9,0-1.4s-0.1-0.9-0.2-1.4H40c1.3,0,2.4,0.5,3.3,1.4c0.9,0.9,1.4,2,1.4,3.3v20
	c0,1.3-0.5,2.5-1.4,3.4c-0.9,0.9-2,1.4-3.3,1.4H20c-1.3,0-2.5-0.5-3.4-1.4c-0.9-0.9-1.4-2-1.4-3.4V35.5z M18,32.7
	c-4.1,0-7.6-1.4-10.5-4.3C4.7,25.6,3.2,22.1,3.2,18c0-4.1,1.4-7.6,4.3-10.5c2.9-2.9,6.3-4.3,10.5-4.3c4.1,0,7.6,1.4,10.5,4.3
	c2.9,2.9,4.3,6.3,4.3,10.5c0,4.1-1.4,7.6-4.3,10.5C25.6,31.3,22.1,32.7,18,32.7z M18,28c2.8,0,5.1-1,7.1-2.9c2-1.9,3-4.3,3-7.1
	c0-2.8-1-5.1-2.9-7.1c-2-2-4.3-3-7.1-3c-2.8,0-5.1,1-7.1,2.9C9,12.8,8,15.2,8,18c0,2.8,1,5.1,2.9,7.1S15.2,28,18,28z"/>
</svg>
