<?xml version="1.0" encoding="utf-8"?>
<!-- Generator: Adobe Illustrator 28.0.0, SVG Export Plug-In . SVG Version: 6.00 Build 0)  -->
<svg version="1.1" id="圖層_1" xmlns="http://www.w3.org/2000/svg" xmlns:xlink="http://www.w3.org/1999/xlink" x="0px" y="0px"
	 viewBox="0 0 96 96" style="enable-background:new 0 0 96 96;" xml:space="preserve">
<style type="text/css">
	.st0{fill:#E6E6E6;}
	.st1{fill:url(#SVGID_1_);}
	.st2{fill:url(#SVGID_00000128446769042587419890000001601729625058705339_);}
	.st3{fill:url(#SVGID_00000088135058541116590060000008014642513196109729_);}
	.st4{fill:url(#SVGID_00000152241527065082763350000016440275740776079551_);}
	.st5{fill:url(#SVGID_00000039122861273917948160000018092061229887723651_);}
	.st6{fill:none;stroke:#E6E6E6;stroke-linecap:round;stroke-linejoin:round;stroke-miterlimit:10;}
	.st7{stroke:#231815;stroke-width:0.75;stroke-linecap:round;stroke-linejoin:round;stroke-miterlimit:10;}
	.st8{fill:#FFFFFF;stroke:#000000;stroke-width:0.75;stroke-linecap:round;stroke-linejoin:round;stroke-miterlimit:10;}
	.st9{fill:#FFFFFF;}
	.st10{fill:none;stroke:#E6E6E6;stroke-width:0.25;stroke-linecap:round;stroke-linejoin:round;stroke-miterlimit:10;}
	.st11{fill:none;stroke:#E6E6E6;stroke-width:2;stroke-linecap:round;stroke-linejoin:round;stroke-miterlimit:10;}
	.st12{fill:#2A2A2A;}
</style>
<g>
	<path class="st12" d="M64.5,15c-0.1-0.1-0.1-0.2-0.2-0.2L57.7,11c-1.5-0.9-3.3-0.8-5.3,0.4l-16.1,9.3c-1.2,0.7-2.4,1.7-3.4,3.1
		c-1,1.3-1.9,2.8-2.5,4.3c-0.6,1.6-0.9,3.1-0.9,4.5v47.8c0,0.3,0.1,0.5,0.4,0.6l6.5,3.7c0.1,0.1,0.2,0.1,0.4,0.1
		c0.1,0,0.3,0,0.4-0.1l6.5-3.7c0.2-0.1,0.4-0.4,0.4-0.6V65.9l8.2-4.7v6.2c0,0.3,0.1,0.5,0.4,0.6l6.5,3.7c0.1,0.1,0.2,0.1,0.3,0.1
		c0,0,0,0,0,0c0,0,0,0,0,0c0.1,0,0.1,0,0.2,0c0.1,0,0.1,0,0.2-0.1l6.5-3.7c0.2-0.1,0.4-0.4,0.4-0.6V19.5
		C66.5,17.4,65.8,15.9,64.5,15z M52.8,45.7l4.2,2.4l0.9,0.5l-13.9,8.1v-5.8L52.8,45.7z M43.9,49.2V33l8.2-4.7v16.2L43.9,49.2z
		 M53.5,44.5V27.4l5-2.9v22.9L53.5,44.5z M36,36.3v46.5l-5-2.9V32.6c0-1.2,0.3-2.6,0.8-3.9c0.6-1.4,1.3-2.7,2.3-3.9
		c0.9-1.2,1.9-2.1,3-2.7l16.1-9.3c1.5-0.9,2.8-1,3.8-0.4l3.6,2.1c0,0-0.1,0-0.1,0c-0.2,0.1-0.4,0.1-0.6,0.2c-0.1,0-0.1,0.1-0.2,0.1
		c-0.3,0.1-0.5,0.3-0.8,0.4l-16.1,9.3c-0.3,0.2-0.6,0.3-0.9,0.6c0,0,0,0,0,0c-0.1,0.1-0.3,0.2-0.4,0.3c-0.7,0.6-1.5,1.3-2.1,2.2
		c-1,1.3-1.9,2.8-2.5,4.3C36.3,33.4,36,34.9,36,36.3z M58.6,69.8l-5-2.9v-6.6l5-2.9V69.8z"/>
</g>
</svg>
